<?xml version="1.0" encoding="UTF-8" standalone="no"?>
<svg
   width="500"
   height="500"
   viewBox="0 0 132.29166 132.29167"
   version="1.1"
   id="svg8"
   inkscape:version="1.1.1 (c3084ef, 2021-09-22)"
   sodipodi:docname="roundabout_initial.svg"
   inkscape:export-filename="/home/ecciadm/Dropbox/UCR/Cursos/Concurrente21b/Tareas/05-roundabout_sync/rotonda (copy).png"
   inkscape:export-xdpi="96"
   inkscape:export-ydpi="96"
   xmlns:inkscape="http://www.inkscape.org/namespaces/inkscape"
   xmlns:sodipodi="http://sodipodi.sourceforge.net/DTD/sodipodi-0.dtd"
   xmlns:xlink="http://www.w3.org/1999/xlink"
   xmlns="http://www.w3.org/2000/svg"
   xmlns:svg="http://www.w3.org/2000/svg"
   xmlns:rdf="http://www.w3.org/1999/02/22-rdf-syntax-ns#"
   xmlns:cc="http://creativecommons.org/ns#"
   xmlns:dc="http://purl.org/dc/elements/1.1/">
  <defs
     id="defs2">
    <marker
       style="overflow:visible;"
       id="Arrow1Mend"
       refX="0.0"
       refY="0.0"
       orient="auto"
       inkscape:stockid="Arrow1Mend"
       inkscape:isstock="true">
      <path
         transform="scale(0.4) rotate(180) translate(10,0)"
         style="fill-rule:evenodd;fill:context-stroke;stroke:context-stroke;stroke-width:1.0pt;"
         d="M 0.0,0.0 L 5.0,-5.0 L -12.5,0.0 L 5.0,5.0 L 0.0,0.0 z "
         id="path998" />
    </marker>
    <marker
       style="overflow:visible;"
       id="Arrow1Lend"
       refX="0.0"
       refY="0.0"
       orient="auto"
       inkscape:stockid="Arrow1Lend"
       inkscape:isstock="true">
      <path
         transform="scale(0.8) rotate(180) translate(12.5,0)"
         style="fill-rule:evenodd;fill:context-stroke;stroke:context-stroke;stroke-width:1.0pt;"
         d="M 0.0,0.0 L 5.0,-5.0 L -12.5,0.0 L 5.0,5.0 L 0.0,0.0 z "
         id="path992" />
    </marker>
  </defs>
  <sodipodi:namedview
     id="base"
     pagecolor="#ffffff"
     bordercolor="#666666"
     borderopacity="1.0"
     inkscape:pageopacity="0.0"
     inkscape:pageshadow="2"
     inkscape:zoom="1"
     inkscape:cx="249.5"
     inkscape:cy="250"
     inkscape:document-units="px"
     inkscape:current-layer="layer4"
     inkscape:document-rotation="0"
     showgrid="true"
     units="px"
     inkscape:window-width="1675"
     inkscape:window-height="1026"
     inkscape:window-x="216"
     inkscape:window-y="23"
     inkscape:window-maximized="0"
     inkscape:pagecheckerboard="0"
     inkscape:snap-global="false">
    <inkscape:grid
       type="xygrid"
       id="grid10"
       spacingx="2.6458334"
       spacingy="2.6458334" />
  </sodipodi:namedview>
  <metadata
     id="metadata5">
    <rdf:RDF>
      <cc:Work
         rdf:about="">
        <dc:format>image/svg+xml</dc:format>
        <dc:type
           rdf:resource="http://purl.org/dc/dcmitype/StillImage" />
      </cc:Work>
    </rdf:RDF>
  </metadata>
  <g
     inkscape:label="roundabout"
     inkscape:groupmode="layer"
     id="layer1"
     style="display:inline"
     sodipodi:insensitive="true">
    <path
       id="rect12"
       style="fill:#cccccc;stroke:#000000;stroke-width:0.264583;stroke-miterlimit:4;stroke-dasharray:none;stroke-dashoffset:0"
       d="M 52.916666,0 V 28.728479 A 39.687499,39.687499 0 0 0 28.72796,52.916666 H 0 V 79.374999 H 28.728479 A 39.687499,39.687499 0 0 0 52.916666,103.5637 v 28.72796 H 79.374999 V 103.56319 A 39.687499,39.687499 0 0 0 103.5637,79.374999 h 28.72796 V 52.916666 H 103.56318 A 39.687499,39.687499 0 0 0 79.374999,28.727961 V 0 Z" />
    <path
       id="path837"
       style="fill:none;stroke:#000000;stroke-width:0.999999;stroke-linecap:butt;stroke-linejoin:miter;stroke-miterlimit:4;stroke-dasharray:7.99998, 7.99998;stroke-dashoffset:0;stroke-opacity:1"
       d="m 250,400.00002 v 100"
       transform="scale(0.26458333)" />
    <path
       id="path886"
       style="fill:none;stroke:#000000;stroke-width:0.999999;stroke-linecap:butt;stroke-linejoin:miter;stroke-miterlimit:4;stroke-dasharray:7.99998, 7.99998;stroke-dashoffset:0;stroke-opacity:1"
       d="m 250,0 1e-5,100.00001"
       transform="scale(0.26458333)" />
    <path
       id="path859"
       style="fill:none;stroke:#000000;stroke-width:0.999999;stroke-linecap:butt;stroke-linejoin:miter;stroke-miterlimit:4;stroke-dasharray:7.99998, 7.99998;stroke-dashoffset:0;stroke-opacity:1"
       d="M 100.00001,250 H 0"
       transform="scale(0.26458333)" />
    <path
       id="path881"
       style="fill:none;stroke:#000000;stroke-width:0.999999;stroke-linecap:butt;stroke-linejoin:miter;stroke-miterlimit:4;stroke-dasharray:7.99998, 7.99998;stroke-dashoffset:0;stroke-opacity:1"
       d="m 500.00002,250 -100,1e-5"
       transform="scale(0.26458333)" />
    <circle
       style="fill:#ffffff;stroke:#000000;stroke-width:0.264583;stroke-miterlimit:4;stroke-dasharray:none;stroke-dashoffset:0"
       id="path863"
       cx="66.145836"
       cy="66.145836"
       r="26.458336" />
    <text
       xml:space="preserve"
       style="font-size:4.23333px;line-height:1.25;font-family:sans-serif;stroke-width:0.264583"
       x="47.719387"
       y="5.6022243"
       id="text1038"><tspan
         sodipodi:role="line"
         id="tspan1036"
         x="47.719387"
         y="5.6022243"
         style="stroke-width:0.264583">N</tspan></text>
    <text
       xml:space="preserve"
       style="font-size:4.23333px;line-height:1.25;font-family:sans-serif;stroke-width:0.264583"
       x="47.719387"
       y="130.22098"
       id="text1042"><tspan
         sodipodi:role="line"
         id="tspan1040"
         x="47.719387"
         y="130.22098"
         style="stroke-width:0.264583">S</tspan></text>
    <text
       xml:space="preserve"
       style="font-size:4.23333px;line-height:1.25;font-family:sans-serif;stroke-width:0.264583"
       x="2.2110543"
       y="84.448059"
       id="text1046"><tspan
         sodipodi:role="line"
         id="tspan1044"
         x="2.2110543"
         y="84.448059"
         style="stroke-width:0.264583">O</tspan></text>
    <text
       xml:space="preserve"
       style="font-size:4.23333px;line-height:1.25;font-family:sans-serif;stroke-width:0.264583"
       x="126.73877"
       y="84.448059"
       id="text1050"><tspan
         sodipodi:role="line"
         id="tspan1048"
         x="126.73877"
         y="84.448059"
         style="stroke-width:0.264583">E</tspan></text>
    <text
       xml:space="preserve"
       style="display:inline;font-size:5.31795px;line-height:1.25;font-family:sans-serif;word-spacing:0px;stroke-width:0.132949"
       x="38.542454"
       y="72.939156"
       id="text5607-3-0"
       transform="scale(1.0760759,0.92930249)"><tspan
         sodipodi:role="line"
         id="tspan5605-7-7"
         style="stroke-width:0.132949"
         x="38.542454"
         y="72.939156">O</tspan></text>
    <text
       xml:space="preserve"
       style="display:inline;font-size:5.31795px;line-height:1.25;font-family:sans-serif;word-spacing:0px;stroke-width:0.132949"
       x="59.203091"
       y="48.540066"
       id="text5607-3-0-8"
       transform="scale(1.0760759,0.92930249)"><tspan
         sodipodi:role="line"
         id="tspan5605-7-7-2"
         style="stroke-width:0.132949"
         x="59.203091"
         y="48.540066">N</tspan></text>
    <text
       xml:space="preserve"
       style="display:inline;font-size:5.31795px;line-height:1.25;font-family:sans-serif;word-spacing:0px;stroke-width:0.132949"
       x="59.389771"
       y="97.035828"
       id="text5607-3-0-0"
       transform="scale(1.0760759,0.92930249)"><tspan
         sodipodi:role="line"
         id="tspan5605-7-7-0"
         style="stroke-width:0.132949"
         x="59.389771"
         y="97.035828">S</tspan></text>
    <text
       xml:space="preserve"
       style="display:inline;font-size:5.31795px;line-height:1.25;font-family:sans-serif;word-spacing:0px;stroke-width:0.132949"
       x="80.563995"
       y="72.86248"
       id="text5607-3-3"
       transform="scale(1.0760759,0.92930249)"><tspan
         sodipodi:role="line"
         id="tspan5605-7-8"
         style="stroke-width:0.132949"
         x="80.563995"
         y="72.86248">E</tspan></text>
  </g>
  <g
     inkscape:groupmode="layer"
     id="layer2"
     inkscape:label="cars"
     style="display:inline">
    <path
       style="display:inline;fill:#000000;stroke-width:0.0982791"
       id="path3870"
       d="m 11.79047,73.31362 v 0 c -0.0097,-0.39709 -0.08757,-0.67504 -0.204323,-0.92323 -0.720001,-0.2581 -0.408649,-0.57576 -0.408649,-0.58569 -0.194595,-0.19854 -0.418379,-0.32759 -0.603244,-0.38716 -0.496216,-0.16875 -1.303783,0.0398 -1.303783,0.0398 H 8.287767 c 0,0 -0.0097,-0.1092 -0.116756,-0.27796 C 8.063984,71.01062 7.84993,71.09998 7.84993,71.09998 L 7.9375,71.4375 c 0,0 -1.4010817,0.0102 -2.4713517,-0.0894 -1.07027,-0.0993 -1.868108,0.18862 -2.179459,0.25811 -0.311352,0.0695 -0.330811,0.19854 -0.418378,0.66511 -0.06811,0.38716 -0.07784,0.89344 -0.07784,1.04235 0,0.1489 0,0.65518 0.06811,1.04234 0.07784,0.46658 0.107027,0.59562 0.418379,0.66511 0.311351,0.0794 1.109189,0.36731 2.179459,0.26804 1.070271,-0.0993 2.4713517,-0.0794 2.4713517,-0.0794 l -0.08757,0.33752 c 0,0 0.214054,0.0993 0.321081,-0.0695 0.107027,-0.16876 0.116756,-0.27796 0.116756,-0.27796 h 0.982703 c 0,0 0.797838,0.2184 1.303784,0.0397 0.184865,-0.0595 0.398919,-0.18861 0.593513,-0.36731 -0.04865,-0.0695 -0.204324,-0.32759 0.398919,-0.54599 0.126487,-0.2581 0.214055,-0.53606 0.223784,-0.93314 v 0 c 0,0 0,-0.0298 0,-0.0497 0.0097,0 0.0097,-0.0298 0.0097,-0.0298 z M 8.161282,71.67565 c 0,0 -0.291893,0.39708 -1.6443247,0.38715 -1.352433,0 -1.8,-0.39707 -1.8,-0.39707 z m -3.5902707,2.70016 c -0.116757,-0.0102 -0.437838,-0.0397 -0.661622,-0.0894 -0.223783,-0.0497 -0.437837,-0.57578 -0.447567,-0.97286 v 0 c 0,0 0,-0.0497 0,-0.0497 0,0 0,0.0497 0,-0.0496 v 0 c 0.0097,-0.39707 0.223784,-0.91328 0.447567,-0.96292 0.233514,-0.0497 0.554595,-0.0794 0.671352,-0.0894 0.116756,-0.0102 0.32108,0.0102 0.32108,0.27797 0,0.22832 0,0.65518 0,0.80408 0,0.0397 0,0.0595 0,0.0595 0,0.1489 0,0.57576 0,0.79416 0,0.27796 -0.214053,0.28789 -0.33081,0.27796 z m 0.136216,0.5857 c 0,0 0.447567,-0.39708 1.8,-0.38715 1.3524327,0 1.6443237,0.39707 1.6443237,0.39707 z M 9.513713,73.31362 c 0,0.91329 -0.350269,1.29052 -0.564324,1.40964 -0.214054,0.12906 -0.788107,-0.0397 -0.972973,-0.0894 -0.175135,-0.0397 -0.243243,-0.24817 -0.243243,-0.42685 0,-0.12906 0,-0.59563 0,-0.83388 0,0 0,-0.0595 0,-0.13898 0,-0.23825 0,-0.70481 0,-0.83388 0,-0.17868 0.05838,-0.38715 0.243243,-0.42686 0.175135,-0.0397 0.74919,-0.20847 0.972973,-0.0794 0.223784,0.12904 0.564324,0.50627 0.564324,1.41957 h -0.02919 z"
       inkscape:connector-curvature="0" />
    <use
       x="0"
       y="0"
       xlink:href="#path3870"
       id="use1011"
       transform="translate(12.400814)"
       width="100%"
       height="100%" />
    <use
       x="0"
       y="0"
       xlink:href="#path3870"
       id="use1013"
       transform="translate(110.91095,-0.8880969)"
       width="100%"
       height="100%" />
    <use
       x="0"
       y="0"
       xlink:href="#path3870"
       id="use1015"
       transform="matrix(-1,0,0,1,12.130356,-12.459414)"
       width="100%"
       height="100%" />
    <use
       x="0"
       y="0"
       xlink:href="#path3870"
       id="use1017"
       transform="rotate(-90,66.270647,66.374712)"
       width="100%"
       height="100%" />
    <use
       x="0"
       y="0"
       xlink:href="#use1017"
       id="use1019"
       transform="translate(0,-12.573047)"
       width="100%"
       height="100%" />
    <path
       style="display:inline;fill:#000000;stroke-width:0.0982791"
       id="use1021"
       d="m 59.792186,12.363873 v 0 c -0.39709,-0.0097 -0.67504,-0.08757 -0.92323,-0.204323 -0.2581,-0.720001 -0.57576,-0.408649 -0.58569,-0.408649 -0.19854,-0.194595 -0.32759,-0.418379 -0.38716,-0.603244 -0.16875,-0.496216 0.0398,-1.303783 0.0398,-1.303783 V 8.86117 c 0,0 -0.1092,-0.0097 -0.27796,-0.116756 -0.16876,-0.107027 -0.0794,-0.321081 -0.0794,-0.321081 l 0.33752,0.08757 c 0,0 0.0102,-1.401082 -0.0894,-2.471352 -0.0993,-1.0702697 0.18862,-1.8681077 0.25811,-2.1794587 0.0695,-0.311352 0.19854,-0.330811 0.66511,-0.418378 0.38716,-0.06811 0.89344,-0.07784 1.04235,-0.07784 0.1489,0 0.65518,0 1.04234,0.06811 0.46658,0.07784 0.59562,0.107027 0.66511,0.418379 0.0794,0.311351 0.36731,1.109189 0.26804,2.1794587 -0.0993,1.070271 -0.0794,2.471352 -0.0794,2.471352 l 0.33752,-0.08757 c 0,0 0.0993,0.214054 -0.0695,0.321081 -0.16876,0.107027 -0.27796,0.116756 -0.27796,0.116756 v 0.982703 c 0,0 0.2184,0.797838 0.0397,1.303784 -0.0595,0.184865 -0.18861,0.398919 -0.36731,0.593513 -0.0695,-0.04865 -0.32759,-0.204324 -0.54599,0.398919 -0.2581,0.126487 -0.53606,0.214055 -0.93314,0.223784 v 0 c 0,0 -0.0298,0 -0.0497,0 0,0.0097 -0.0298,0.0097 -0.0298,0.0097 z m -1.63797,-3.629188 c 0,0 0.39708,-0.291893 0.38715,-1.644325 0,-1.352433 -0.39707,-1.7999997 -0.39707,-1.7999997 z m 2.70016,-3.5902707 c -0.0102,-0.116757 -0.0397,-0.437838 -0.0894,-0.661622 -0.0497,-0.223783 -0.57578,-0.437837 -0.97286,-0.447567 v 0 c 0,0 -0.0497,0 -0.0497,0 0,0 0.0497,0 -0.0496,0 v 0 c -0.39707,0.0097 -0.91328,0.223784 -0.96292,0.447567 -0.0497,0.233514 -0.0794,0.554595 -0.0894,0.671352 -0.0102,0.116756 0.0102,0.32108 0.27797,0.32108 0.22832,0 0.65518,0 0.80408,0 0.0397,0 0.0595,0 0.0595,0 0.1489,0 0.57576,0 0.79416,0 0.27796,0 0.28789,-0.214053 0.27796,-0.33081 z m 0.5857,0.136216 c 0,0 -0.39708,0.4475667 -0.38715,1.7999997 0,1.352433 0.39707,1.644324 0.39707,1.644324 z m -1.64789,4.8064857 c 0.91329,0 1.29052,-0.350269 1.40964,-0.564324 0.12906,-0.214054 -0.0397,-0.788107 -0.0894,-0.972973 -0.0397,-0.175135 -0.24817,-0.243243 -0.42685,-0.243243 -0.12906,0 -0.59563,0 -0.83388,0 0,0 -0.0595,0 -0.13898,0 -0.23825,0 -0.70481,0 -0.83388,0 -0.17868,0 -0.38715,0.05838 -0.42686,0.243243 -0.0397,0.175135 -0.20847,0.74919 -0.0794,0.972973 0.12904,0.223784 0.50627,0.564324 1.41957,0.564324 v -0.02919 z"
       inkscape:connector-curvature="0" />
    <use
       x="0"
       y="0"
       xlink:href="#use1021"
       id="use1025"
       transform="translate(0,12.745281)"
       width="100%"
       height="100%" />
    <use
       x="0"
       y="0"
       xlink:href="#path3870"
       id="use1027"
       transform="matrix(-0.79956017,-0.600586,-0.600586,0.79956017,149.92689,1.748257)"
       width="100%"
       height="100%" />
    <use
       x="0"
       y="0"
       xlink:href="#use1011"
       id="use1029"
       transform="matrix(-1,0,0,1,133.38849,-14.117264)"
       width="100%"
       height="100%" />
    <use
       x="0"
       y="0"
       xlink:href="#use1019"
       id="use1034"
       transform="rotate(27.651134,140.70974,138.65327)"
       width="100%"
       height="100%" />
    <use
       x="0"
       y="0"
       xlink:href="#use1015"
       id="use1109"
       transform="rotate(-40.732373,-4.6967119,-6.7475921)"
       width="100%"
       height="100%" />
    <use
       x="0"
       y="0"
       xlink:href="#use1109"
       id="use1111"
       transform="rotate(-22.430925,74.84061,71.355455)"
       width="100%"
       height="100%" />
  </g>
  <g
     inkscape:groupmode="layer"
     id="layer3"
     inkscape:label="semaphors"
     style="display:inline">
    <circle
       style="fill:#00ff00;stroke:#000000;stroke-width:0.264583;stroke-miterlimit:4;stroke-dasharray:none;stroke-dashoffset:0"
       id="path1101"
       cx="73.112076"
       cy="97.895836"
       r="2.6458333" />
    <circle
       style="fill:#ff0000;stroke:#000000;stroke-width:0.264583;stroke-miterlimit:4;stroke-dasharray:none;stroke-dashoffset:0"
       id="circle1103"
       cx="32.76997"
       cy="73.386101"
       r="2.6458333"
       inkscape:transform-center-x="9.1340624"
       inkscape:transform-center-y="-4.4147968" />
    <circle
       style="fill:#00ff00;stroke:#000000;stroke-width:0.264583;stroke-miterlimit:4;stroke-dasharray:none;stroke-dashoffset:0"
       id="circle1105"
       cx="58.954281"
       cy="32.435055"
       r="2.6458333"
       inkscape:transform-center-x="9.1340624"
       inkscape:transform-center-y="-4.4147968" />
    <circle
       style="fill:#ff0000;stroke:#000000;stroke-width:0.264583;stroke-miterlimit:4;stroke-dasharray:none;stroke-dashoffset:0"
       id="circle1107"
       cx="98.078514"
       cy="59.076069"
       r="2.6458333"
       inkscape:transform-center-x="9.1340624"
       inkscape:transform-center-y="-4.4147968" />
    <text
       xml:space="preserve"
       style="font-size:5.31795px;line-height:1.25;font-family:sans-serif;word-spacing:0px;stroke-width:0.132949"
       x="38.542454"
       y="72.939156"
       id="text5607-3"
       transform="scale(1.0760759,0.92930248)"><tspan
         sodipodi:role="line"
         id="tspan5605-7"
         style="stroke-width:0.132949"
         x="38.542454"
         y="72.939156">O</tspan></text>
  </g>
  <g
     inkscape:groupmode="layer"
     id="layer4"
     inkscape:label="arrows">
    <path
       style="fill:none;stroke:#ff0000;stroke-width:0.264583;stroke-linecap:butt;stroke-linejoin:miter;stroke-miterlimit:3.9;stroke-dasharray:none;stroke-opacity:1;marker-end:url(#Arrow1Mend)"
       d="m 73.025001,131.21865 0,-30.67698"
       id="path987"
       sodipodi:nodetypes="cc" />
    <path
       style="fill:none;stroke:#ff0000;stroke-width:0.264583px;stroke-linecap:butt;stroke-linejoin:miter;stroke-opacity:1;marker-end:url(#Arrow1Mend)"
       d="m 34.395833,76.729168 c 0,0 4.119462,22.984344 35.78421,22.070936"
       id="path1477" />
  </g>
</svg>
